<?xml version="1.0" encoding="UTF-8" standalone="no"?>
<!DOCTYPE svg PUBLIC "-//W3C//DTD SVG 1.1//EN"
 "http://www.w3.org/Graphics/SVG/1.1/DTD/svg11.dtd">
<!-- Generated by graphviz version 2.38.0 (20140413.2041)
 -->
<!-- Title: GG Pages: 1 -->
<svg width="74pt" height="188pt"
 viewBox="0.00 0.00 74.16 188.00" xmlns="http://www.w3.org/2000/svg" xmlns:xlink="http://www.w3.org/1999/xlink">
<g id="graph0" class="graph" transform="scale(1 1) rotate(0) translate(4 184)">
<title>GG</title>
<polygon fill="white" stroke="none" points="-4,4 -4,-184 70.1634,-184 70.1634,4 -4,4"/>
<!-- node10 -->
<g id="node1" class="node"><title>node10</title>
<polygon fill="none" stroke="black" points="63.4544,-167.562 33.0817,-180 2.70899,-167.562 2.73734,-147.438 63.4261,-147.438 63.4544,-167.562"/>
<text text-anchor="middle" x="33.0817" y="-158.9" font-family="Times,serif" font-size="12.00">hello</text>
</g>
<!-- node7 -->
<g id="node2" class="node"><title>node7</title>
<polygon fill="none" stroke="black" points="33.0817,-108 -0.0819194,-90 33.0817,-72 66.2454,-90 33.0817,-108"/>
<text text-anchor="middle" x="33.0817" y="-86.9" font-family="Times,serif" font-size="12.00">print</text>
</g>
<!-- node10&#45;&gt;node7 -->
<g id="edge1" class="edge"><title>node10&#45;&gt;node7</title>
<path fill="none" stroke="black" d="M33.0817,-147.17C33.0817,-138.919 33.0817,-128.153 33.0817,-118.256"/>
<polygon fill="black" stroke="black" points="36.5818,-118.019 33.0817,-108.019 29.5818,-118.019 36.5818,-118.019"/>
</g>
<!-- node4 -->
<g id="node3" class="node"><title>node4</title>
<polygon fill="none" stroke="black" points="33.0817,-36 1.89976,-18 33.0817,-3.55271e-15 64.2637,-18 33.0817,-36"/>
<text text-anchor="middle" x="33.0817" y="-14.9" font-family="Times,serif" font-size="12.00">msg</text>
</g>
<!-- node7&#45;&gt;node4 -->
<g id="edge2" class="edge"><title>node7&#45;&gt;node4</title>
<path fill="none" stroke="black" d="M33.0817,-71.6966C33.0817,-63.9827 33.0817,-54.7125 33.0817,-46.1124"/>
<polygon fill="black" stroke="black" points="36.5818,-46.1043 33.0817,-36.1043 29.5818,-46.1044 36.5818,-46.1043"/>
</g>
</g>
</svg>
